{
    "asset" : {
        "generator" : "Khronos glTF Blender I/O v0.9.36",
        "version" : "2.0"
    },
    "scene" : 0,
    "scenes" : [
        {
            "name" : "Scene",
            "nodes" : [
                0
            ]
        }
    ],
    "nodes" : [
        {
            "mesh" : 0,
            "name" : "result"
        }
    ],
    "meshes" : [
        {
            "name" : "Sphere.002",
            "primitives" : [
                {
                    "attributes" : {
                        "POSITION" : 0,
                        "NORMAL" : 1,
                        "TEXCOORD_0" : 2
                    },
                    "indices" : 3
                }
            ]
        }
    ],
    "accessors" : [
        {
            "bufferView" : 0,
            "componentType" : 5126,
            "count" : 3072,
            "max" : [
                0.8878045082092285,
                0.8878042697906494,
                0.8878045082092285
            ],
            "min" : [
                -0.8878041505813599,
                -0.887804388999939,
                -0.8878041505813599
            ],
            "type" : "VEC3"
        },
        {
            "bufferView" : 1,
            "componentType" : 5126,
            "count" : 3072,
            "type" : "VEC3"
        },
        {
            "bufferView" : 2,
            "componentType" : 5126,
            "count" : 3072,
            "type" : "VEC2"
        },
        {
            "bufferView" : 3,
            "componentType" : 5123,
            "count" : 5232,
            "type" : "SCALAR"
        }
    ],
    "bufferViews" : [
        {
            "buffer" : 0,
            "byteLength" : 36864,
            "byteOffset" : 0
        },
        {
            "buffer" : 0,
            "byteLength" : 36864,
            "byteOffset" : 36864
        },
        {
            "buffer" : 0,
            "byteLength" : 24576,
            "byteOffset" : 73728
        },
        {
            "buffer" : 0,
            "byteLength" : 10464,
            "byteOffset" : 98304
        }
    ],
    "buffers" : [
        {
            "byteLength" : 108768,
            "uri" : "data:application/octet-stream;base64,"
        }
    ]
}
